<svg xmlns="http://www.w3.org/2000/svg" xmlns:xlink="http://www.w3.org/1999/xlink" enable-background="new 0 0 128 128" height="128px" id="Layer_1" version="1.1" viewBox="0 0 128 128" width="128px" xml:space="preserve">
  <g>
    <path d="M18.863 86.36h-5.974C7.98 86.36 4 90.326 4 95.218v19.915c0 4.897 3.98 8.86 8.889 8.86h5.974c4.909 0 8.889-3.963 8.889-8.86V95.218C27.751 90.326 23.771 86.36 18.863 86.36z" fill="#d6e685"/>
    <path d="M51.299 63.884h-7.034c-4.907 0-8.887 3.966-8.887 8.858v1.405 39.586 1.404c0 4.896 3.98 8.859 8.887 8.859h7.034c4.909 0 8.889-3.963 8.889-8.859v-1.404V74.147v-1.405C60.188 67.85 56.208 63.884 51.299 63.884z" fill="#8cc665"/>
    <path d="M83.206 41.401H76.17c-4.905 0-8.886 3.967-8.886 8.86v2.833 59.213 2.833c0 4.897 3.98 8.86 8.886 8.86h7.036c4.909 0 8.888-3.963 8.888-8.86v-2.833V53.094v-2.833C92.094 45.369 88.115 41.401 83.206 41.401z" fill="#44a340"/>
    <path d="M115.114 18.922h-7.036c-4.906 0-8.886 3.967-8.886 8.86v25.312 36.733 25.313c0 4.897 3.979 8.86 8.886 8.86h7.036c4.909 0 8.886-3.963 8.886-8.86V89.827 53.094 27.782C124 22.889 120.023 18.922 115.114 18.922z" fill="#1e6823"/>
  </g>
</svg>
